<svg xmlns="http://www.w3.org/2000/svg" viewBox="0 0 160 160">
  <defs>
    <style>
      .cls-1 {
        fill: #fff;
      }
    </style>
  </defs>
  <title>signet_white</title>
  <g id="Warstwa_1" data-name="Warstwa 1">
    <g>
      <path class="cls-1" d="M0 0 C3.50556242 4.63702194 2.87796642 9.86910065 2.90625 15.51953125 C2.93138672 16.69386719 2.95652344 17.86820313 2.98242188 19.078125 C3.04131358 21.9755969 3.07757969 24.8715573 3.09375 27.76953125 C4.186875 27.87265625 5.28 27.97578125 6.40625 28.08203125 C10.09375 28.76953125 10.09375 28.76953125 12 29.9921875 C14.34894328 33.80922034 13.77292409 38.489453 13.09375 42.76953125 C10.96875 45.45703125 10.96875 45.45703125 8.09375 46.76953125 C6.09441523 46.82111114 4.09290455 46.8276784 2.09375 46.76953125 C2.10707367 47.7628949 2.12039734 48.75625854 2.13412476 49.77972412 C2.25571504 59.13779822 2.34567843 68.49571226 2.40462303 77.85439682 C2.43594622 82.6659612 2.47843656 87.47688835 2.54638672 92.28808594 C2.61154483 96.93060827 2.6474486 101.57251747 2.66301346 106.21546173 C2.67410628 107.98738511 2.69576859 109.75927463 2.72813034 111.53093719 C2.77164943 114.01192405 2.77768645 116.49037302 2.77490234 118.97167969 C2.796474 119.70535767 2.81804565 120.43903564 2.840271 121.19494629 C2.8152771 123.25140381 2.8152771 123.25140381 2.09375 126.76953125 C-3.79469597 131.71069232 -8.97014185 132.00565656 -16.40625 132.14453125 C-17.54513672 132.20060547 -17.54513672 132.20060547 -18.70703125 132.2578125 C-22.40297933 132.31606737 -24.33546154 132.1674878 -27.421875 130.015625 C-29.75150326 124.92109583 -29.32413538 119.98110611 -29.15625 114.45703125 C-29.13820313 113.33490234 -29.12015625 112.21277344 -29.1015625 111.05664062 C-29.05452856 108.29339678 -28.98881317 105.53190427 -28.90625 102.76953125 C-30.01097656 102.79789062 -31.11570312 102.82625 -32.25390625 102.85546875 C-35.90625 102.76953125 -35.90625 102.76953125 -38.34375 101.39453125 C-40.77354658 97.31247299 -40.65149166 93.39463928 -39.90625 88.76953125 C-38.34375 86.14453125 -38.34375 86.14453125 -35.90625 84.76953125 C-33.5735623 84.71464448 -31.23881488 84.7096521 -28.90625 84.76953125 C-28.91291183 83.80344437 -28.91957367 82.83735748 -28.92643738 81.84199524 C-28.98727172 72.73429568 -29.03223379 63.62663739 -29.06168652 54.51878071 C-29.07733754 49.83640889 -29.09856556 45.15420119 -29.13256836 40.47192383 C-29.16518186 35.95263749 -29.18310725 31.43350894 -29.19088173 26.914114 C-29.19642166 25.19053857 -29.20723984 23.46697171 -29.22344017 21.74346352 C-29.24524113 19.32789115 -29.24821585 16.91296949 -29.24682617 14.49731445 C-29.257612 13.78593323 -29.26839783 13.074552 -29.2795105 12.34161377 C-29.25237989 7.97875404 -28.62487607 5.21306836 -25.90625 1.76953125 C-18.59556605 -2.30758096 -7.77389811 -3.29136815 0 0 Z " transform="translate(92.90625,14.23046875)"/>

    </g>
  </g>
</svg>


