<svg xmlns="http://www.w3.org/2000/svg" viewBox="0 0 706 134">
  <defs>
    <style>
      .cls-1 {
        fill:#3c4b64;
      }
      .cls-2 {
        fill: #e797a5;
      }
      .cls-3 {
        fill: #cf2f4c;
      }
    </style>
  </defs>
  <title>coreui angular negative</title>
  <g id="Layer_1" data-name="Layer 1">
    <g>
      <!--PROFIT-->
      <path class="cls-2" d="M0 0 C0.81407318 -0.00807175 1.62814636 -0.01614349 2.46688843 -0.02445984 C4.18998098 -0.03827218 5.91310056 -0.04900705 7.63623047 -0.05688477 C9.38370889 -0.06837069 11.13115317 -0.08876857 12.87841797 -0.1184082 C34.38765149 -0.48293697 34.38765149 -0.48293697 42.0859375 6.42578125 C47.51089507 16.19070487 48.3198043 26.90726017 45.4609375 37.73828125 C43.59158722 42.94514733 41.39928892 46.68027691 36.44140625 49.48828125 C28.19419307 53.04929684 20.47352456 52.53999363 11.6484375 52.23828125 C11.6484375 57.18828125 11.6484375 62.13828125 11.6484375 67.23828125 C7.47945367 68.90587478 5.81458489 69.49269802 1.63671875 69.50390625 C0.71439453 69.50648437 -0.20792969 69.5090625 -1.15820312 69.51171875 C-2.10888672 69.50398438 -3.05957031 69.49625 -4.0390625 69.48828125 C-5.00134766 69.49601562 -5.96363281 69.50375 -6.95507812 69.51171875 C-7.87353516 69.50914063 -8.79199219 69.5065625 -9.73828125 69.50390625 C-10.99451294 69.50052246 -10.99451294 69.50052246 -12.27612305 69.49707031 C-14.3515625 69.23828125 -14.3515625 69.23828125 -16.3515625 67.23828125 C-16.61898804 64.62623596 -16.61898804 64.62623596 -16.64208984 61.27563477 C-16.65484955 60.02416153 -16.66760925 58.77268829 -16.68075562 57.48329163 C-16.68381283 56.11125848 -16.68604083 54.73922327 -16.6875 53.3671875 C-16.6939245 51.96475588 -16.70065259 50.56232562 -16.70767212 49.15989685 C-16.7196566 46.21846407 -16.72335174 43.27714884 -16.72216797 40.33569336 C-16.72196467 36.56468218 -16.74927167 32.79442373 -16.78371239 29.02359104 C-16.8059393 26.1265262 -16.81000683 23.22964375 -16.80894852 20.33250237 C-16.81131066 18.94220318 -16.82016872 17.55189944 -16.83561325 16.16168404 C-16.85518486 14.21799522 -16.84693546 12.27408624 -16.83740234 10.33032227 C-16.84025238 9.22382828 -16.84310242 8.11733429 -16.84603882 6.97731018 C-16.3515625 4.23828125 -16.3515625 4.23828125 -14.57119751 2.42002869 C-9.86824026 -0.0838549 -5.23430834 0.04962279 0 0 Z M11.6484375 16.23828125 C11.6484375 22.50828125 11.6484375 28.77828125 11.6484375 35.23828125 C13.2984375 35.23828125 14.9484375 35.23828125 16.6484375 35.23828125 C19.45091003 30.48528784 19.32488261 25.60909244 18.6484375 20.23828125 C17.0614766 17.4762445 17.0614766 17.4762445 14.6484375 16.23828125 C13.6584375 16.23828125 12.6684375 16.23828125 11.6484375 16.23828125 Z " transform="translate(350.3515625,31.76171875)"/>
      <path class="cls-2" d="M0 0 C0.85846527 -0.00807175 1.71693054 -0.01614349 2.60140991 -0.02445984 C4.41866045 -0.03827512 6.23593667 -0.04900868 8.05322266 -0.05688477 C9.89770192 -0.06837433 11.74214874 -0.08877798 13.58642578 -0.1184082 C33.96083551 -0.44549514 33.96083551 -0.44549514 41.2109375 4.23828125 C43.7109375 6.73828125 43.7109375 6.73828125 45.2109375 9.23828125 C45.73880859 10.05425781 45.73880859 10.05425781 46.27734375 10.88671875 C48.84202754 17.34671724 48.31151887 26.88744057 46.16015625 33.4375 C44.60437027 36.50776791 42.89517682 39.34057451 40.80859375 42.078125 C39.89323919 44.46634666 39.89323919 44.46634666 41.73046875 47.41015625 C42.47934885 48.61262092 43.24443181 49.80511058 44.0234375 50.98828125 C47.39454494 56.12737253 49.01879416 60.01018678 49.2109375 66.23828125 C44.81967248 70.62954627 37.9767905 69.4945592 32.1484375 69.55078125 C30.63926758 69.59428711 30.63926758 69.59428711 29.09960938 69.63867188 C28.13474609 69.64705078 27.16988281 69.65542969 26.17578125 69.6640625 C25.295271 69.67864502 24.41476074 69.69322754 23.50756836 69.70825195 C21.2109375 69.23828125 21.2109375 69.23828125 19.48730469 67.45483398 C18.30674663 65.40466439 17.49839577 63.60706031 16.82421875 61.34765625 C16.53091675 60.38811035 16.53091675 60.38811035 16.23168945 59.40917969 C15.99796631 58.6102832 15.76424316 57.81138672 15.5234375 56.98828125 C14.7603125 54.43078125 13.9971875 51.87328125 13.2109375 49.23828125 C12.8809375 55.17828125 12.5509375 61.11828125 12.2109375 67.23828125 C8.04195367 68.90587478 6.37708489 69.49269802 2.19921875 69.50390625 C1.27689453 69.50648437 0.35457031 69.5090625 -0.59570312 69.51171875 C-1.54638672 69.50398438 -2.49707031 69.49625 -3.4765625 69.48828125 C-4.43884766 69.49601562 -5.40113281 69.50375 -6.39257812 69.51171875 C-7.31103516 69.50914063 -8.22949219 69.5065625 -9.17578125 69.50390625 C-10.43201294 69.50052246 -10.43201294 69.50052246 -11.71362305 69.49707031 C-13.7890625 69.23828125 -13.7890625 69.23828125 -15.7890625 67.23828125 C-16.04975891 64.62623596 -16.04975891 64.62623596 -16.0637207 61.27563477 C-16.07801872 59.39842491 -16.07801872 59.39842491 -16.09260559 57.48329163 C-16.09234417 56.11125663 -16.09140715 54.73922163 -16.08984375 53.3671875 C-16.09372943 51.96475599 -16.09806384 50.56232565 -16.10282898 49.15989685 C-16.11029685 46.21845691 -16.10999599 43.27713697 -16.10473633 40.33569336 C-16.09894246 36.56480174 -16.11586734 32.79440142 -16.139081 29.02359104 C-16.15380825 26.12653223 -16.15469143 23.22959198 -16.15157127 20.33250237 C-16.15208505 18.94221969 -16.15733345 17.55193048 -16.16738319 16.16168404 C-16.17970854 14.21793483 -16.17102708 12.2740866 -16.16137695 10.33032227 C-16.16200638 9.22382828 -16.1626358 8.11733429 -16.1632843 6.97731018 C-15.7890625 4.23828125 -15.7890625 4.23828125 -14.51579285 2.42002869 C-10.20285999 -0.53167559 -5.0358421 0.04520333 0 0 Z M12.2109375 15.23828125 C12.2109375 20.51828125 12.2109375 25.79828125 12.2109375 31.23828125 C13.8609375 31.23828125 15.5109375 31.23828125 17.2109375 31.23828125 C19.34257178 28.04082983 19.53069314 26.95070209 19.5859375 23.23828125 C19.61429687 22.37203125 19.64265625 21.50578125 19.671875 20.61328125 C19.41596054 18.0994577 19.41596054 18.0994577 17.375 16.42578125 C15.18400682 14.99774722 15.18400682 14.99774722 12.2109375 15.23828125 Z "  transform="translate(417.7890625,31.76171875)"/>
      <path class="cls-2" d="M0 0 C1.44524048 0.01595215 1.44524048 0.01595215 2.91967773 0.03222656 C11.32291005 0.25693854 17.64150795 2.0011784 24.9375 6.125 C33.22068696 15.38267955 34.42001067 27.22123528 33.9375 39.1875 C33.01464499 49.38085303 30.01993964 57.73091146 22.0625 64.5 C10.77090364 71.49417833 -1.1556549 71.71062439 -14.09375 70.109375 C-20.68102353 68.48340242 -25.64530536 64.69443147 -29.9375 59.5 C-36.08393427 48.48056398 -37.08496331 32.94365977 -33.6875 20.8125 C-30.86944786 13.10199624 -26.0636023 7.17463782 -18.75610352 3.36181641 C-12.37745985 0.65104024 -6.9007761 -0.13754497 0 0 Z M-0.9375 15.5 C-4.72995974 18.92544751 -5.77931776 21.00048092 -6.09863281 26.04614258 C-6.1441707 29.13504136 -6.17274558 32.22329403 -6.1875 35.3125 C-6.208125 36.38048828 -6.22875 37.44847656 -6.25 38.54882812 C-6.2802805 44.66927435 -5.86967309 49.09091227 -2.9375 54.5 C-1.2875 54.5 0.3625 54.5 2.0625 54.5 C7.68614902 45.12725163 5.78825362 29.68698737 3.890625 19.3203125 C2.78952523 16.89997055 1.48677636 16.43620429 -0.9375 15.5 Z " transform="translate(504.9375,31.5)"/>
      <path class="cls-2" d="M0 0 C0.89821976 -0.00570007 1.79643951 -0.01140015 2.72187805 -0.01727295 C4.6138085 -0.02669214 6.50575513 -0.03324464 8.39770508 -0.03710938 C11.30122875 -0.04687651 14.20406229 -0.07795283 17.10742188 -0.109375 C18.94661038 -0.11589961 20.78580394 -0.1211522 22.625 -0.125 C23.49581711 -0.1373468 24.36663422 -0.1496936 25.26383972 -0.16241455 C27.7019043 -0.15332031 27.7019043 -0.15332031 31.61328125 0.203125 C35.01314508 5.30292074 34.20425155 11.85599148 33.16015625 17.76953125 C32.70265299 19.59627639 32.16709316 21.40323628 31.61328125 23.203125 C29.05070945 23.23022623 26.4884276 23.25001271 23.92578125 23.265625 C23.20455078 23.27400391 22.48332031 23.28238281 21.74023438 23.29101562 C17.89772743 23.30856132 14.34688599 23.13836721 10.61328125 22.203125 C10.61328125 24.183125 10.61328125 26.163125 10.61328125 28.203125 C16.55328125 27.873125 22.49328125 27.543125 28.61328125 27.203125 C30.50285799 31.92706685 30.82312988 33.47956886 30.36328125 38.265625 C30.275625 39.28785156 30.18796875 40.31007812 30.09765625 41.36328125 C29.6410907 44.0400809 28.97461894 45.87657658 27.61328125 48.203125 C25.1548752 48.23004185 22.69676243 48.24992302 20.23828125 48.265625 C19.53960938 48.27400391 18.8409375 48.28238281 18.12109375 48.29101562 C12.83984375 48.31640625 12.83984375 48.31640625 10.61328125 47.203125 C10.61328125 53.803125 10.61328125 60.403125 10.61328125 67.203125 C6.44429742 68.87071853 4.77942864 69.45754177 0.6015625 69.46875 C-0.32076172 69.47132812 -1.24308594 69.47390625 -2.19335938 69.4765625 C-3.14404297 69.46882813 -4.09472656 69.46109375 -5.07421875 69.453125 C-6.03650391 69.46085937 -6.99878906 69.46859375 -7.99023438 69.4765625 C-8.90869141 69.47398438 -9.82714844 69.47140625 -10.7734375 69.46875 C-12.02966919 69.46536621 -12.02966919 69.46536621 -13.3112793 69.46191406 C-15.38671875 69.203125 -15.38671875 69.203125 -17.38671875 67.203125 C-17.64741516 64.59107971 -17.64741516 64.59107971 -17.66137695 61.24047852 C-17.67567497 59.36326866 -17.67567497 59.36326866 -17.69026184 57.44813538 C-17.69000042 56.07610038 -17.6890634 54.70406538 -17.6875 53.33203125 C-17.69138568 51.92959974 -17.69572009 50.5271694 -17.70048523 49.1247406 C-17.7079531 46.18330066 -17.70765224 43.24198072 -17.70239258 40.30053711 C-17.69659871 36.52964549 -17.71352359 32.75924517 -17.73673725 28.98843479 C-17.7514645 26.09137598 -17.75234768 23.19443573 -17.74922752 20.29734612 C-17.7497413 18.90706344 -17.7549897 17.51677423 -17.76503944 16.12652779 C-17.77736479 14.18277858 -17.76868333 12.23893035 -17.7590332 10.29516602 C-17.75966263 9.18867203 -17.76029205 8.08217804 -17.76094055 6.94215393 C-17.38671875 4.203125 -17.38671875 4.203125 -15.99475098 2.36454773 C-11.58384857 -0.82128538 -5.20993709 0.02560479 0 0 Z "  transform="translate(561.38671875,31.796875)"/>
      <path class="cls-2" d="M0 0 C1 1 1 1 1.12025452 3.58790588 C1.1169236 5.31665199 1.1169236 5.31665199 1.11352539 7.08032227 C1.11344986 8.38159561 1.11337433 9.68286896 1.11329651 11.02357483 C1.10818909 12.45451902 1.10297308 13.88546282 1.09765625 15.31640625 C1.09579203 16.7722926 1.09436815 18.22817957 1.09336853 19.68406677 C1.08954365 23.52279379 1.07971364 27.36148319 1.06866455 31.20019531 C1.05844978 35.11457816 1.05387077 39.02896706 1.04882812 42.94335938 C1.03809134 50.62892343 1.02101529 58.31445645 1 66 C-2.24008668 66.86812415 -5.05772329 67.11634598 -8.421875 67.09765625 C-9.95908203 67.09282227 -9.95908203 67.09282227 -11.52734375 67.08789062 C-12.59082031 67.07951172 -13.65429688 67.07113281 -14.75 67.0625 C-15.82894531 67.05798828 -16.90789063 67.05347656 -18.01953125 67.04882812 C-20.67974383 67.03705727 -23.33984365 67.02061399 -26 67 C-27.33676045 64.3264791 -27.16420092 62.23054213 -27.20874023 59.23681641 C-27.22803085 58.02861237 -27.24732147 56.82040833 -27.26719666 55.57559204 C-27.32472815 50.05269564 -27.37450658 44.52994913 -27.4050293 39.00683594 C-27.42285379 36.08874629 -27.4576894 33.17162104 -27.50756836 30.25390625 C-27.56772755 26.73071364 -27.59849775 23.20841612 -27.60820198 19.68473434 C-27.62092593 17.69036715 -27.66298308 15.69625708 -27.70542908 13.70230103 C-27.68532013 4.89983598 -27.68532013 4.89983598 -25.70326233 2.29736328 C-18.70662173 -2.51775908 -7.5423824 -3.7711912 0 0 Z "  transform="translate(627,34)"/>
      <path class="cls-2" d="M0 0 C0.95708359 0.00222061 1.91416718 0.00444122 2.9002533 0.00672913 C3.98129837 0.00680466 5.06234344 0.00688019 6.17614746 0.00695801 C7.94018166 0.01469994 7.94018166 0.01469994 9.73985291 0.02259827 C10.93702438 0.02401321 12.13419586 0.02542816 13.36764526 0.02688599 C17.20918732 0.03250472 21.05067208 0.04506041 24.89219666 0.05775452 C27.48920102 0.0627671 30.0862063 0.06733043 32.68321228 0.07142639 C39.06539344 0.08248024 45.44754096 0.0992366 51.82969666 0.12025452 C55.34940208 6.56110573 54.82938276 15.44140616 52.89219666 22.43275452 C51.82969666 25.12025452 51.82969666 25.12025452 50.82969666 26.12025452 C46.53969666 26.12025452 42.24969666 26.12025452 37.82969666 26.12025452 C37.82969666 39.98025452 37.82969666 53.84025452 37.82969666 68.12025452 C34.36950692 68.98530195 31.9139834 69.23738944 28.40782166 69.21791077 C26.87061462 69.21307678 26.87061462 69.21307678 25.30235291 69.20814514 C24.23887634 69.19976624 23.17539978 69.19138733 22.07969666 69.18275452 C21.00075134 69.1782428 19.92180603 69.17373108 18.81016541 69.16908264 C16.14995283 69.15731179 13.48985301 69.14086851 10.82969666 69.12025452 C9.11167283 65.68420687 9.71003485 61.73586556 9.73204041 57.95619202 C9.73345535 57.04898407 9.7348703 56.14177612 9.73632812 55.20707703 C9.7419357 52.30310296 9.75448947 49.39920537 9.76719666 46.49525452 C9.77221068 44.52910979 9.77677376 42.56296387 9.78086853 40.59681702 C9.79190759 35.77126662 9.80917731 30.94577354 9.82969666 26.12025452 C5.20969666 26.12025452 0.58969666 26.12025452 -4.17030334 26.12025452 C-5.85041313 22.76003495 -5.35489892 18.9992764 -5.35780334 15.30775452 C-5.37004944 14.50015686 -5.38229553 13.6925592 -5.39491272 12.86048889 C-5.40560709 8.50788065 -5.25296583 5.06105454 -3.17030334 1.12025452 C-2.17030334 0.12025452 -2.17030334 0.12025452 0 0 Z "  transform="translate(638.1703033447266,31.879745483398438)"/>
    </g>
    <g>
      <g>
        <!--BAR-->
        <path class="cls-1" d="M0 0 C1.12341797 -0.01160156 2.24683594 -0.02320313 3.40429688 -0.03515625 C4.48904297 -0.03128906 5.57378906 -0.02742187 6.69140625 -0.0234375 C7.67439697 -0.02005371 8.6573877 -0.01666992 9.67016602 -0.01318359 C12.97812794 0.45083577 14.84650715 1.26672304 17.4375 3.375 C18.00512695 5.55151367 18.00512695 5.55151367 17.92578125 8.04296875 C17.90966797 8.93564453 17.89355469 9.82832031 17.87695312 10.74804688 C17.81411133 12.14120117 17.81411133 12.14120117 17.75 13.5625 C17.72744141 14.50287109 17.70488281 15.44324219 17.68164062 16.41210938 C17.62269227 18.73467473 17.54047785 21.05403776 17.4375 23.375 C18.345 23.2925 19.2525 23.21 20.1875 23.125 C23.4375 23.375 23.4375 23.375 25.7734375 24.96875 C28.95343264 29.56705283 28.36211189 35.04123138 27.4375 40.375 C24.6875 43.1875 24.6875 43.1875 21.4375 44.375 C20.1175 44.375 18.7975 44.375 17.4375 44.375 C17.4375 65.165 17.4375 85.955 17.4375 107.375 C8.42188153 111.88280924 8.42188153 111.88280924 3.36328125 111.90625 C2.28369141 111.91140625 1.20410156 111.9165625 0.09179688 111.921875 C-1.01099609 111.90640625 -2.11378906 111.8909375 -3.25 111.875 C-4.9215918 111.89820312 -4.9215918 111.89820312 -6.62695312 111.921875 C-11.14012487 111.90024206 -14.65206102 111.77331705 -18.8125 109.953125 C-21.51204344 105.97611903 -21.09983531 102.30849251 -20.875 97.625 C-20.85244141 96.73683594 -20.82988281 95.84867187 -20.80664062 94.93359375 C-20.74782552 92.74567188 -20.66571268 90.56120329 -20.5625 88.375 C-21.47 88.4575 -22.3775 88.54 -23.3125 88.625 C-26.5625 88.375 -26.5625 88.375 -28.90234375 86.75 C-31.94760901 82.39347935 -31.38619115 77.45916261 -30.5625 72.375 C-28.375 69.625 -28.375 69.625 -25.5625 68.375 C-23.89654327 68.32635893 -22.22822591 68.31900921 -20.5625 68.375 C-20.56694122 67.6196698 -20.57138245 66.8643396 -20.57595825 66.08612061 C-20.61604711 58.96476047 -20.64649054 51.84345513 -20.66612434 44.72201157 C-20.67655763 41.06088188 -20.69070844 37.39984551 -20.71337891 33.73876953 C-20.73512364 30.20504083 -20.74707205 26.67140184 -20.75225449 23.13761139 C-20.75774344 21.13457783 -20.77335381 19.13158031 -20.78909302 17.12860107 C-20.78924408 15.90763733 -20.78939514 14.68667358 -20.78955078 13.42871094 C-20.793992 12.35393494 -20.79843323 11.27915894 -20.80300903 10.17181396 C-20.55934642 7.33832791 -20.10905379 5.73783568 -18.5625 3.375 C-12.99299609 -0.73471741 -6.61478542 -0.068547 0 0 Z "  transform="translate(291.5625,11.625)"/>
      </g>
      <g>
        <!--RISK-->
        <path class="cls-1" d="M0 0 C0.85846527 -0.00807175 1.71693054 -0.01614349 2.60140991 -0.02445984 C4.41866045 -0.03827512 6.23593667 -0.04900868 8.05322266 -0.05688477 C9.89770192 -0.06837433 11.74214874 -0.08877798 13.58642578 -0.1184082 C33.96083551 -0.44549514 33.96083551 -0.44549514 41.2109375 4.23828125 C43.7109375 6.73828125 43.7109375 6.73828125 45.2109375 9.23828125 C45.73880859 10.05425781 45.73880859 10.05425781 46.27734375 10.88671875 C48.84202754 17.34671724 48.31151887 26.88744057 46.16015625 33.4375 C44.60437027 36.50776791 42.89517682 39.34057451 40.80859375 42.078125 C39.89323919 44.46634666 39.89323919 44.46634666 41.73046875 47.41015625 C42.47934885 48.61262092 43.24443181 49.80511058 44.0234375 50.98828125 C47.39454494 56.12737253 49.01879416 60.01018678 49.2109375 66.23828125 C44.81967248 70.62954627 37.9767905 69.4945592 32.1484375 69.55078125 C30.63926758 69.59428711 30.63926758 69.59428711 29.09960938 69.63867188 C28.13474609 69.64705078 27.16988281 69.65542969 26.17578125 69.6640625 C25.295271 69.67864502 24.41476074 69.69322754 23.50756836 69.70825195 C21.2109375 69.23828125 21.2109375 69.23828125 19.48730469 67.45483398 C18.30674663 65.40466439 17.49839577 63.60706031 16.82421875 61.34765625 C16.53091675 60.38811035 16.53091675 60.38811035 16.23168945 59.40917969 C15.99796631 58.6102832 15.76424316 57.81138672 15.5234375 56.98828125 C14.7603125 54.43078125 13.9971875 51.87328125 13.2109375 49.23828125 C12.8809375 55.17828125 12.5509375 61.11828125 12.2109375 67.23828125 C8.04195367 68.90587478 6.37708489 69.49269802 2.19921875 69.50390625 C1.27689453 69.50648437 0.35457031 69.5090625 -0.59570312 69.51171875 C-1.54638672 69.50398438 -2.49707031 69.49625 -3.4765625 69.48828125 C-4.43884766 69.49601562 -5.40113281 69.50375 -6.39257812 69.51171875 C-7.31103516 69.50914063 -8.22949219 69.5065625 -9.17578125 69.50390625 C-10.43201294 69.50052246 -10.43201294 69.50052246 -11.71362305 69.49707031 C-13.7890625 69.23828125 -13.7890625 69.23828125 -15.7890625 67.23828125 C-16.04975891 64.62623596 -16.04975891 64.62623596 -16.0637207 61.27563477 C-16.07801872 59.39842491 -16.07801872 59.39842491 -16.09260559 57.48329163 C-16.09234417 56.11125663 -16.09140715 54.73922163 -16.08984375 53.3671875 C-16.09372943 51.96475599 -16.09806384 50.56232565 -16.10282898 49.15989685 C-16.11029685 46.21845691 -16.10999599 43.27713697 -16.10473633 40.33569336 C-16.09894246 36.56480174 -16.11586734 32.79440142 -16.139081 29.02359104 C-16.15380825 26.12653223 -16.15469143 23.22959198 -16.15157127 20.33250237 C-16.15208505 18.94221969 -16.15733345 17.55193048 -16.16738319 16.16168404 C-16.17970854 14.21793483 -16.17102708 12.2740866 -16.16137695 10.33032227 C-16.16200638 9.22382828 -16.1626358 8.11733429 -16.1632843 6.97731018 C-15.7890625 4.23828125 -15.7890625 4.23828125 -14.51579285 2.42002869 C-10.20285999 -0.53167559 -5.0358421 0.04520333 0 0 Z M12.2109375 15.23828125 C12.2109375 20.51828125 12.2109375 25.79828125 12.2109375 31.23828125 C13.8609375 31.23828125 15.5109375 31.23828125 17.2109375 31.23828125 C19.34257178 28.04082983 19.53069314 26.95070209 19.5859375 23.23828125 C19.61429688 22.37203125 19.64265625 21.50578125 19.671875 20.61328125 C19.41596054 18.0994577 19.41596054 18.0994577 17.375 16.42578125 C15.18400682 14.99774722 15.18400682 14.99774722 12.2109375 15.23828125 Z " transform="translate(29.7890625,31.76171875)"/>
        <path class="cls-1" d="M0 0 C1 1 1 1 1.12025452 3.58790588 C1.1169236 5.31665199 1.1169236 5.31665199 1.11352539 7.08032227 C1.11344986 8.38159561 1.11337433 9.68286896 1.11329651 11.02357483 C1.10818909 12.45451902 1.10297308 13.88546282 1.09765625 15.31640625 C1.09579203 16.7722926 1.09436815 18.22817957 1.09336853 19.68406677 C1.08954365 23.52279379 1.07971364 27.36148319 1.06866455 31.20019531 C1.05844978 35.11457816 1.05387077 39.02896706 1.04882812 42.94335938 C1.03809134 50.62892343 1.02101529 58.31445645 1 66 C-2.24008668 66.86812415 -5.05772329 67.11634598 -8.421875 67.09765625 C-9.95908203 67.09282227 -9.95908203 67.09282227 -11.52734375 67.08789062 C-12.59082031 67.07951172 -13.65429688 67.07113281 -14.75 67.0625 C-15.82894531 67.05798828 -16.90789062 67.05347656 -18.01953125 67.04882812 C-20.67974383 67.03705727 -23.33984365 67.02061399 -26 67 C-27.33676045 64.3264791 -27.16420092 62.23054213 -27.20874023 59.23681641 C-27.22803085 58.02861237 -27.24732147 56.82040833 -27.26719666 55.57559204 C-27.32472815 50.05269564 -27.37450658 44.52994913 -27.4050293 39.00683594 C-27.42285379 36.08874629 -27.4576894 33.17162104 -27.50756836 30.25390625 C-27.56772755 26.73071364 -27.59849775 23.20841612 -27.60820198 19.68473434 C-27.62092593 17.69036715 -27.66298308 15.69625708 -27.70542908 13.70230103 C-27.68532013 4.89983598 -27.68532013 4.89983598 -25.70326233 2.29736328 C-18.70662173 -2.51775908 -7.5423824 -3.7711912 0 0 Z "  transform="translate(110,34)"/>
        <path class="cls-1" d="M0 0 C1.12083984 -0.01611328 2.24167969 -0.03222656 3.39648438 -0.04882812 C10.69511328 -0.05306413 17.46971754 0.61657369 24.3125 3.3125 C26.66270498 5.66270498 26.63164802 6.23159622 26.6875 9.4375 C26.57747099 14.30235402 25.32151789 18.43978253 22.3125 22.3125 C20.40234375 23.62109375 20.40234375 23.62109375 18.3125 24.3125 C16.37928141 23.59163883 14.44793995 22.86180766 12.55078125 22.05078125 C8.84027592 20.82689729 5.17270602 21.07123712 1.3125 21.3125 C1.3125 22.3025 1.3125 23.2925 1.3125 24.3125 C2.3025 24.67601563 3.2925 25.03953125 4.3125 25.4140625 C21.59103453 31.92303956 21.59103453 31.92303956 26.25 39.4375 C28.78091697 46.28586355 29.27552887 52.51373071 26.41015625 59.390625 C23.1370863 65.12140939 17.97837164 67.78671372 11.88134766 69.71264648 C7.29057614 70.78464094 2.75631637 70.75418128 -1.9375 70.6875 C-2.94659424 70.67952393 -3.95568848 70.67154785 -4.99536133 70.66333008 C-24.4174174 70.2936387 -24.4174174 70.2936387 -30.6875 64.3125 C-31.48360606 57.82992208 -29.78948171 52.41825639 -27.6875 46.3125 C-23.4126893 45.07218084 -21.03689485 45.63952345 -16.9375 47.25 C-11.52854875 49.19802576 -7.39918872 49.69327925 -1.6875 49.3125 C-1.6875 48.3225 -1.6875 47.3325 -1.6875 46.3125 C-2.43773437 46.02117187 -3.18796875 45.72984375 -3.9609375 45.4296875 C-23.55206693 37.58336614 -23.55206693 37.58336614 -27.6875 29.3125 C-30.08709902 23.31350246 -28.95539158 16.32097512 -26.796875 10.42578125 C-24.38799194 5.83702866 -20.70631267 3.08528205 -15.9296875 1.25683594 C-10.65679496 -0.27897343 -5.45718635 -0.0154245 0 0 Z " transform="translate(146.6875,31.6875)"/>
        <path class="cls-1" d="M0 0 C1.94071876 2.76667943 1.83467747 5.2190787 2 8.55859375 C2.09861328 10.32783203 2.09861328 10.32783203 2.19921875 12.1328125 C2.23660156 13.03644531 2.27398437 13.94007812 2.3125 14.87109375 C2.72242188 13.89527344 3.13234375 12.91945313 3.5546875 11.9140625 C4.09879714 10.628838 4.64307689 9.3436855 5.1875 8.05859375 C5.45691406 7.41599609 5.72632813 6.77339844 6.00390625 6.11132812 C7.25945731 3.15618967 8.52527178 0.55193608 10.3125 -2.12890625 C17.56563975 -3.7044415 24.83879466 -1.30860743 31.3125 1.87109375 C34.5625 4.18359375 34.5625 4.18359375 36.3125 6.87109375 C37.11695661 14.91565982 30.41250272 21.01823323 25.671875 26.91015625 C24.57043204 28.24581409 23.44498767 29.56165488 22.3125 30.87109375 C23.95003447 34.72901394 26.53741862 37.67327242 29.25 40.80859375 C36.68083307 49.40759272 36.68083307 49.40759272 37.9375 54.30859375 C36.89165359 58.59656404 33.89565484 60.51115384 30.3125 62.87109375 C19.60260704 68.78320229 19.60260704 68.78320229 13.3125 67.87109375 C11.5546875 65.96484375 11.5546875 65.96484375 10.1875 63.37109375 C9.45273438 62.01371094 9.45273438 62.01371094 8.703125 60.62890625 C8.24421875 59.71882813 7.7853125 58.80875 7.3125 57.87109375 C6.89484375 57.06414062 6.4771875 56.2571875 6.046875 55.42578125 C5.11077965 53.58655166 4.20778445 51.73053069 3.3125 49.87109375 C1.37159174 51.81200201 1.91330565 55.34403277 1.75 57.93359375 C1.66621094 59.22394531 1.58242187 60.51429687 1.49609375 61.84375 C1.40521484 63.34228516 1.40521484 63.34228516 1.3125 64.87109375 C-4.39943186 66.81887024 -9.48842755 67.17654254 -15.5 67.12109375 C-16.35787109 67.12882812 -17.21574219 67.1365625 -18.09960938 67.14453125 C-18.91880859 67.14195313 -19.73800781 67.139375 -20.58203125 67.13671875 C-21.69348511 67.13333496 -21.69348511 67.13333496 -22.82739258 67.12988281 C-24.6875 66.87109375 -24.6875 66.87109375 -26.6875 64.87109375 C-26.94819641 62.3349762 -26.94819641 62.3349762 -26.9621582 59.09204102 C-26.97169022 57.88060928 -26.98122223 56.66917755 -26.99104309 55.42103577 C-26.99013168 54.10646896 -26.98922028 52.79190216 -26.98828125 51.4375 C-26.99216705 50.07990894 -26.99650148 48.72231909 -27.00126648 47.36473083 C-27.00873395 44.51744651 -27.0084338 41.67028616 -27.00317383 38.82299805 C-26.99738013 35.1731684 -27.01430455 31.52384638 -27.0375185 27.87410069 C-27.05224725 25.06968719 -27.05312873 22.26539617 -27.05000877 19.46095085 C-27.05077241 17.46064396 -27.06465432 15.46035607 -27.07868958 13.46009827 C-27.07246078 12.24551437 -27.06623199 11.03093048 -27.05981445 9.77954102 C-27.06044388 8.70857681 -27.0610733 7.63761261 -27.0617218 6.53419495 C-26.6875 3.87109375 -26.6875 3.87109375 -25.3321991 2.0721283 C-19.39122089 -2.26624587 -6.49644912 -4.34600415 0 0 Z "  transform="translate(206.6875,34.12890625)"/>
      </g>
    </g>
  </g>

</svg>


