<svg id="Warstwa_1" data-name="Warstwa 1" xmlns="http://www.w3.org/2000/svg" viewBox="0 0 376 178">
  <defs>
    <style>
      .cls-2 {
        fill: #3c4b64;
      }
    </style>
  </defs>
  <title>Base_negative</title>
  <g>
    <g>
      <!--  R-->
      <path  class="cls-2" d="M0 0 C2.18585497 -0.00969015 4.37076228 -0.04074324 6.55639648 -0.07226562 C13.71733381 -0.12628435 19.84522321 -0.00816283 26.39038086 3.24023438 C27.35975586 3.71460938 28.32913086 4.18898438 29.32788086 4.67773438 C31.39038086 6.24023438 31.39038086 6.24023438 32.20288086 8.42773438 C32.26475586 9.02585937 32.32663086 9.62398437 32.39038086 10.24023438 C33.05038086 10.24023438 33.71038086 10.24023438 34.39038086 10.24023438 C42.08578198 25.28124565 41.10364037 46.52034542 36.47241211 62.38476562 C33.76562328 70.29771534 33.76562328 70.29771534 30.39038086 73.24023438 C30.8099707 74.25730469 30.8099707 74.25730469 31.23803711 75.29492188 C33.5432053 81.1867755 35.45098051 87.22020954 37.39038086 93.24023438 C37.71780273 94.243125 38.04522461 95.24601562 38.38256836 96.27929688 C40.25071789 102.45308628 41.50061551 108.79651953 40.39038086 115.24023438 C38.28251757 118.17764386 35.82975233 119.28611547 32.39038086 120.24023438 C28.94815058 120.47212888 25.52581665 120.42858867 22.07788086 120.36523438 C20.68085937 120.35169922 20.68085937 120.35169922 19.25561523 120.33789062 C16.96693726 120.314417 14.67879414 120.28158166 12.39038086 120.24023438 C12.39038086 119.58023438 12.39038086 118.92023438 12.39038086 118.24023438 C11.73038086 118.24023438 11.07038086 118.24023438 10.39038086 118.24023438 C8.56610191 111.46903682 7.38277407 104.65979531 6.26538086 97.74023438 C5.99274414 96.07734375 5.99274414 96.07734375 5.71459961 94.38085938 C5.27021737 91.66778887 4.82888867 88.95425944 4.39038086 86.24023438 C4.37056152 87.1385498 4.35074219 88.03686523 4.33032227 88.96240234 C4.25228825 92.29113516 4.16559972 95.61940693 4.07299805 98.94775391 C4.03468412 100.38907178 3.99983543 101.83048606 3.96850586 103.27197266 C3.9229064 105.34247323 3.86490642 107.4123087 3.80444336 109.48242188 C3.77302246 110.72878418 3.74160156 111.97514648 3.70922852 113.25927734 C3.39038086 116.24023438 3.39038086 116.24023438 1.39038086 118.24023438 C-3.31294809 120.81478388 -8.0786335 120.57239709 -13.29711914 120.55273438 C-14.16401367 120.56884766 -15.0309082 120.58496094 -15.92407227 120.6015625 C-17.16640625 120.6025293 -17.16640625 120.6025293 -18.43383789 120.60351562 C-19.18753662 120.60649658 -19.94123535 120.60947754 -20.71777344 120.61254883 C-21.34208252 120.48968506 -21.9663916 120.36682129 -22.60961914 120.24023438 C-24.72241815 117.07103586 -24.86115383 116.30904134 -24.87031555 112.68566895 C-24.87740036 111.75190933 -24.88448517 110.81814972 -24.89178467 109.85609436 C-24.88930725 108.83366135 -24.88682983 107.81122833 -24.88427734 106.7578125 C-24.88938828 105.67954697 -24.89449921 104.60128143 -24.89976501 103.49034119 C-24.91369339 99.91733285 -24.91270194 96.34451667 -24.91040039 92.77148438 C-24.9142852 90.29431079 -24.91861942 87.81713787 -24.92338562 85.33996582 C-24.93085458 80.14475343 -24.93055139 74.949609 -24.92529297 69.75439453 C-24.91991775 64.41154768 -24.92697367 59.06889017 -24.94580078 53.72607422 C-24.96821344 47.28409338 -24.9760602 40.84227098 -24.97212791 34.4002533 C-24.97264257 31.94098867 -24.97790713 29.48172041 -24.98793983 27.0224762 C-25.00022841 23.58901753 -24.99355817 20.15610567 -24.98193359 16.72265625 C-24.98957733 15.70022324 -24.99722107 14.67779022 -25.00509644 13.62437439 C-24.99808212 12.69061478 -24.99106781 11.75685516 -24.98384094 10.7947998 C-24.98400868 9.98290947 -24.98417643 9.17101913 -24.98434925 8.33452606 C-24.51430689 5.70755326 -23.74824324 4.80212206 -21.60961914 3.24023438 C-20.61961914 3.24023438 -19.62961914 3.24023438 -18.60961914 3.24023438 C-18.60961914 2.58023437 -18.60961914 1.92023437 -18.60961914 1.24023438 C-12.47968428 -0.21722244 -6.26194994 0.01678619 0 0 Z M3.39038086 28.24023438 C3.39038086 37.15023437 3.39038086 46.06023437 3.39038086 55.24023438 C6.47532677 54.21191907 7.47306565 53.76760442 9.39038086 51.24023438 C11.12549928 44.45749873 11.59856055 34.65659376 8.39038086 28.24023438 C6.74038086 28.24023438 5.09038086 28.24023438 3.39038086 28.24023438 Z " transform="translate(81.609619140625,27.759765625)"/>
      <!--  I-->
      <path class="cls-2" d="M0 0 C2.68137122 1.60926809 4.18583437 2.55259695 6 5 C6.87758655 8.57685882 6.76903857 12.07426829 6.69702148 15.74121094 C6.70074516 17.3638662 6.70074516 17.3638662 6.70454407 19.01930237 C6.70546174 22.59170685 6.66366548 26.16224547 6.62109375 29.734375 C6.61244019 32.21347323 6.60629391 34.69258138 6.60255432 37.17169189 C6.58532244 43.69495667 6.5311843 50.21743497 6.47027588 56.74041748 C6.42356674 62.07992122 6.40912022 67.41945198 6.39300442 72.75912094 C6.37344348 79.10508513 6.3428489 85.4509747 6.30859375 91.796875 C6.30216795 93.01572136 6.29574215 94.23456772 6.28912163 95.49034882 C6.26824482 98.91910003 6.23995217 102.34769629 6.20874023 105.77636719 C6.20290924 106.80284866 6.19707825 107.82933014 6.19107056 108.88691711 C6.18102493 109.81503708 6.17097931 110.74315704 6.16062927 111.69940186 C6.15032259 112.91610628 6.15032259 112.91610628 6.1398077 114.15739059 C6 116 6 116 5 117 C3.33382885 117.04063832 1.66611905 117.042721 0 117 C0 117.66 0 118.32 0 119 C-3.29159316 119.05790353 -6.58305603 119.09356261 -9.875 119.125 C-10.81214844 119.14175781 -11.74929687 119.15851563 -12.71484375 119.17578125 C-13.61074219 119.18222656 -14.50664062 119.18867188 -15.4296875 119.1953125 C-16.25710449 119.20578613 -17.08452148 119.21625977 -17.93701172 119.22705078 C-20 119 -20 119 -22 117 C-22.24888897 115.07281494 -22.24888897 115.07281494 -22.24723816 112.67285156 C-22.25143265 111.76426392 -22.25562714 110.85567627 -22.25994873 109.91955566 C-22.25432922 108.92000854 -22.24870972 107.92046143 -22.24291992 106.890625 C-22.24481827 105.84015991 -22.24671661 104.78969482 -22.24867249 103.70739746 C-22.25238897 100.22152332 -22.24166358 96.73585574 -22.23046875 93.25 C-22.22927733 90.83626327 -22.22882371 88.42252607 -22.2290802 86.00878906 C-22.22751382 80.94463203 -22.21921237 75.88054554 -22.20581055 70.81640625 C-22.18882052 64.31258238 -22.18499612 57.80883613 -22.18575573 51.30499268 C-22.18548429 46.31916559 -22.18000725 41.33335559 -22.17275429 36.34753418 C-22.1695635 33.94885386 -22.16759926 31.55017159 -22.16686058 29.15148926 C-22.16470137 25.80408401 -22.15596615 22.4567624 -22.14526367 19.109375 C-22.14571686 18.10982788 -22.14617004 17.11028076 -22.14663696 16.08044434 C-22.14237198 15.17185669 -22.13810699 14.26326904 -22.13371277 13.32714844 C-22.13203692 12.53516052 -22.13036108 11.74317261 -22.12863445 10.92718506 C-22 9 -22 9 -21 7 C-20.34 7 -19.68 7 -19 7 C-19 6.34 -19 5.68 -19 5 C-13.27731565 1.07587359 -6.99952561 -1.64356677 0 0 Z "  transform="translate(148,29)"/>
      <!-- S-->
      <path class="cls-2" d="M0 0 C0.77537109 -0.00128906 1.55074219 -0.00257812 2.34960938 -0.00390625 C3.15591797 -0.00003906 3.96222656 0.00382812 4.79296875 0.0078125 C5.58767578 0.00394531 6.38238281 0.00007813 7.20117188 -0.00390625 C11.57327043 0.00332634 15.67612589 0.25946757 19.98046875 1.1328125 C19.98046875 1.7928125 19.98046875 2.4528125 19.98046875 3.1328125 C20.68171875 3.0709375 21.38296875 3.0090625 22.10546875 2.9453125 C25.72668303 3.18147865 27.91055994 4.22264702 30.98046875 6.1328125 C36.03417817 13.9011834 32.58035194 25.40610614 30.83203125 33.8828125 C30.11721974 36.61090046 29.54139425 38.79703909 27.98046875 41.1328125 C24.98046875 42.1328125 24.98046875 42.1328125 21.98046875 41.1328125 C21.98046875 40.4728125 21.98046875 39.8128125 21.98046875 39.1328125 C20.99046875 39.1328125 20.00046875 39.1328125 18.98046875 39.1328125 C18.98046875 38.4728125 18.98046875 37.8128125 18.98046875 37.1328125 C15.68046875 36.8028125 12.38046875 36.4728125 8.98046875 36.1328125 C6.87814531 39.0012538 6.87814531 39.0012538 5.98046875 42.1328125 C6.64046875 42.1328125 7.30046875 42.1328125 7.98046875 42.1328125 C7.98046875 42.7928125 7.98046875 43.4528125 7.98046875 44.1328125 C8.64046875 44.1328125 9.30046875 44.1328125 9.98046875 44.1328125 C9.98046875 44.7928125 9.98046875 45.4528125 9.98046875 46.1328125 C11.30046875 46.1328125 12.62046875 46.1328125 13.98046875 46.1328125 C13.98046875 46.7928125 13.98046875 47.4528125 13.98046875 48.1328125 C14.97046875 48.1328125 15.96046875 48.1328125 16.98046875 48.1328125 C16.98046875 48.7928125 16.98046875 49.4528125 16.98046875 50.1328125 C18.63046875 50.4628125 20.28046875 50.7928125 21.98046875 51.1328125 C21.98046875 51.7928125 21.98046875 52.4528125 21.98046875 53.1328125 C22.64046875 53.1328125 23.30046875 53.1328125 23.98046875 53.1328125 C32.10065239 61.02099089 34.14169028 71.04514794 34.45214844 81.93847656 C34.55641523 93.69905216 33.34156695 102.60380883 27.98046875 113.1328125 C27.32046875 113.1328125 26.66046875 113.1328125 25.98046875 113.1328125 C25.98046875 113.7928125 25.98046875 114.4528125 25.98046875 115.1328125 C23.41900305 117.42929899 22.50079303 118.1328125 18.98046875 118.1328125 C18.98046875 118.7928125 18.98046875 119.4528125 18.98046875 120.1328125 C15.98023337 121.13289096 13.96610711 121.26176598 10.83203125 121.265625 C9.8265625 121.26691406 8.82109375 121.26820313 7.78515625 121.26953125 C6.21121094 121.26373047 6.21121094 121.26373047 4.60546875 121.2578125 C3.043125 121.26361328 3.043125 121.26361328 1.44921875 121.26953125 C0.44117188 121.26824219 -0.566875 121.26695312 -1.60546875 121.265625 C-2.9829126 121.26393311 -2.9829126 121.26393311 -4.38818359 121.26220703 C-7.02376899 121.13260411 -9.44981533 120.71734016 -12.01953125 120.1328125 C-12.01953125 119.4728125 -12.01953125 118.8128125 -12.01953125 118.1328125 C-13.10234375 117.9471875 -13.10234375 117.9471875 -14.20703125 117.7578125 C-16.97675019 117.1423194 -19.41656665 116.24836876 -22.01953125 115.1328125 C-22.01953125 114.4728125 -22.01953125 113.8128125 -22.01953125 113.1328125 C-22.67953125 113.1328125 -23.33953125 113.1328125 -24.01953125 113.1328125 C-27.13671025 103.78127551 -24.975778 90.52091028 -22.13671875 81.25 C-21.01953125 79.1328125 -21.01953125 79.1328125 -18.01953125 78.1328125 C-14.83203125 79.0703125 -14.83203125 79.0703125 -12.01953125 80.1328125 C-12.01953125 80.7928125 -12.01953125 81.4528125 -12.01953125 82.1328125 C-11.02953125 82.1328125 -10.03953125 82.1328125 -9.01953125 82.1328125 C-9.01953125 82.7928125 -9.01953125 83.4528125 -9.01953125 84.1328125 C-5.86446983 85.06901063 -3.05366623 85.2385248 0.23046875 85.1953125 C1.1225 85.18628906 2.01453125 85.17726563 2.93359375 85.16796875 C3.6090625 85.15636719 4.28453125 85.14476563 4.98046875 85.1328125 C4.98046875 83.4828125 4.98046875 81.8328125 4.98046875 80.1328125 C4.32046875 79.8028125 3.66046875 79.4728125 2.98046875 79.1328125 C2.98046875 78.4728125 2.98046875 77.8128125 2.98046875 77.1328125 C1.99046875 77.1328125 1.00046875 77.1328125 -0.01953125 77.1328125 C-0.01953125 76.4728125 -0.01953125 75.8128125 -0.01953125 75.1328125 C-1.00953125 75.1328125 -1.99953125 75.1328125 -3.01953125 75.1328125 C-3.01953125 74.4728125 -3.01953125 73.8128125 -3.01953125 73.1328125 C-4.19515625 72.66875 -4.19515625 72.66875 -5.39453125 72.1953125 C-8.01953125 71.1328125 -8.01953125 71.1328125 -10.01953125 70.1328125 C-10.01953125 69.4728125 -10.01953125 68.8128125 -10.01953125 68.1328125 C-10.67953125 68.1328125 -11.33953125 68.1328125 -12.01953125 68.1328125 C-12.01953125 67.4728125 -12.01953125 66.8128125 -12.01953125 66.1328125 C-12.67953125 66.1328125 -13.33953125 66.1328125 -14.01953125 66.1328125 C-14.12265625 65.4934375 -14.22578125 64.8540625 -14.33203125 64.1953125 C-14.55890625 63.5146875 -14.78578125 62.8340625 -15.01953125 62.1328125 C-16.00953125 61.8028125 -16.99953125 61.4728125 -18.01953125 61.1328125 C-19.15234375 58.83984375 -19.15234375 58.83984375 -20.14453125 55.9453125 C-20.47710937 55.00300781 -20.8096875 54.06070313 -21.15234375 53.08984375 C-24.84112173 40.51144316 -24.21645633 24.76016753 -18.9296875 12.6328125 C-17.83203125 10.6953125 -17.83203125 10.6953125 -16.01953125 8.1328125 C-15.35953125 8.1328125 -14.69953125 8.1328125 -14.01953125 8.1328125 C-14.01953125 7.4728125 -14.01953125 6.8128125 -14.01953125 6.1328125 C-12.59375 4.87890625 -12.59375 4.87890625 -10.70703125 3.5703125 C-10.09214844 3.13589844 -9.47726563 2.70148437 -8.84375 2.25390625 C-5.88878447 0.43789959 -3.38859493 0.00545856 0 0 Z " transform="translate(184.01953125,27.8671875)"/>
      <!--K-->
      <path class="cls-2" d="M0 0 C6.625 -0.125 6.625 -0.125 10 1 C10 1.66 10 2.32 10 3 C11.32 3 12.64 3 14 3 C14 3.66 14 4.32 14 5 C16.475 5.495 16.475 5.495 19 6 C19 6.66 19 7.32 19 8 C19.66 8 20.32 8 21 8 C25.32083465 13.89204725 26.94149814 18.6981589 26 26 C24.62256045 30.46290414 22.85532158 34.7168576 21 39 C20.63132812 39.8765625 20.26265625 40.753125 19.8828125 41.65625 C18.53983811 44.77944627 17.19810029 47.68761108 15.375 50.5625 C13.20490467 54.40948717 11.38057025 58.54403152 12.49365234 62.95727539 C13.39107474 64.96526445 14.40032439 66.84537794 15.5 68.75 C16.2513887 70.14578671 17.0026899 71.54162052 17.75390625 72.9375 C18.13305176 73.62070313 18.51219727 74.30390625 18.90283203 75.0078125 C20.4884589 77.88692136 21.96466016 80.81152247 23.4375 83.75 C23.91058594 84.67296875 24.38367188 85.5959375 24.87109375 86.546875 C27.17380842 91.55069788 27.71078833 96.54114559 27 102 C25.125 105.375 25.125 105.375 23 108 C22.34 108.99 21.68 109.98 21 111 C20.34 111 19.68 111 19 111 C18.938125 111.598125 18.87625 112.19625 18.8125 112.8125 C17.66445318 115.90339529 15.89452948 116.5880344 13 118 C12.34 118 11.68 118 11 118 C11 118.66 11 119.32 11 120 C8.29120665 121.35439668 5.99066732 121.06501451 3 121 C-2.03619846 111.46336888 -4.46602173 101.40548523 -7 91 C-8.25895412 93.51790825 -8.15835078 95.34068955 -8.2109375 98.15625 C-8.25347656 99.68958984 -8.25347656 99.68958984 -8.296875 101.25390625 C-8.34895415 103.41779492 -8.39322671 105.58188558 -8.4296875 107.74609375 C-8.47609375 109.27943359 -8.47609375 109.27943359 -8.5234375 110.84375 C-8.54325684 111.78412109 -8.56307617 112.72449219 -8.58349609 113.69335938 C-8.72094238 114.45455078 -8.85838867 115.21574219 -9 116 C-12.4352048 118.29013653 -13.985331 118.17842973 -18 118 C-18 118.66 -18 119.32 -18 120 C-20.60444348 120.05394705 -23.20776998 120.09364469 -25.8125 120.125 C-26.55048828 120.14175781 -27.28847656 120.15851563 -28.04882812 120.17578125 C-31.91246426 120.21074628 -33.70903668 120.19397555 -37 118 C-37.3719368 116.07281494 -37.3719368 116.07281494 -37.36749268 113.67285156 C-37.37584641 112.30997009 -37.37584641 112.30997009 -37.3843689 110.91955566 C-37.37515411 109.92000854 -37.36593933 108.92046143 -37.35644531 107.890625 C-37.35848969 106.84015991 -37.36053406 105.78969482 -37.36264038 104.70739746 C-37.36565813 101.22142351 -37.34714122 97.73591804 -37.328125 94.25 C-37.32506903 91.83626421 -37.32319168 89.42252667 -37.32244873 87.00878906 C-37.3178394 81.94459306 -37.30338927 76.88055552 -37.28125 71.81640625 C-37.25296718 65.31257861 -37.24203921 58.80887597 -37.2375679 52.30499268 C-37.2334182 47.31916035 -37.22360447 42.33335352 -37.21169281 37.34753418 C-37.20598017 34.94885463 -37.20122477 32.5501726 -37.19742584 30.15148926 C-37.19057891 26.80407367 -37.17695384 23.45675867 -37.16113281 20.109375 C-37.16001495 19.10982788 -37.15889709 18.11028076 -37.15774536 17.08044434 C-37.15203522 16.17185669 -37.14632507 15.26326904 -37.14044189 14.32714844 C-37.13746723 13.53516052 -37.13449257 12.74317261 -37.13142776 11.92718506 C-37 10 -37 10 -36 8 C-35.34 8 -34.68 8 -34 8 C-34 7.34 -34 6.68 -34 6 C-28.00255765 1.76651128 -22.21248118 0.31309703 -15 1 C-11.55687286 3.1244827 -10.28382453 4.14852641 -9 8 C-8.8535286 9.55266653 -8.75305926 11.10995662 -8.68359375 12.66796875 C-8.64169922 13.56064453 -8.59980469 14.45332031 -8.55664062 15.37304688 C-8.51732422 16.30181641 -8.47800781 17.23058594 -8.4375 18.1875 C-8.39431641 19.12787109 -8.35113281 20.06824219 -8.30664062 21.03710938 C-8.20061335 23.35792854 -8.09854971 25.67885325 -8 28 C-7.82871582 27.3294458 -7.65743164 26.6588916 -7.48095703 25.96801758 C-6.69909731 22.91528033 -5.91210116 19.86388983 -5.125 16.8125 C-4.85558594 15.75740234 -4.58617187 14.70230469 -4.30859375 13.61523438 C-4.04433594 12.59365234 -3.78007812 11.57207031 -3.5078125 10.51953125 C-3.26691895 9.58214111 -3.02602539 8.64475098 -2.77783203 7.67895508 C-2.00997168 5.03434377 -1.06640117 2.53722997 0 0 Z " transform="translate(260,28)"/>
    </g>
    <g>
      <!--BAR-->
      <path class="cls-2" d="M0 0 C0.81984375 -0.02835938 1.6396875 -0.05671875 2.484375 -0.0859375 C7.05282294 -0.10062704 10.88392363 0.25810775 14.34228516 3.63232422 C16.71297083 7.91973448 15.96621439 13.06964322 15.75 17.8125 C15.70939453 19.49569336 15.70939453 19.49569336 15.66796875 21.21289062 C15.59739001 23.97722459 15.49884488 26.73762415 15.375 29.5 C16.4475 29.5825 17.52 29.665 18.625 29.75 C22.753267 30.5756534 24.0618765 31.03031475 26.375 34.5 C27.29148426 39.82632086 27.93690364 46.71866993 25.19921875 51.59375 C22.05432888 54.38920766 19.39354811 54.6711477 15.375 54.5 C15.39165459 55.97125336 15.39165459 55.97125336 15.40864563 57.472229 C15.50997421 66.71261846 15.58494244 75.95289531 15.63406086 85.19371414 C15.66016226 89.9446451 15.69556997 94.69512782 15.75219727 99.44580078 C15.80649807 104.02994953 15.83641644 108.61366697 15.84938622 113.19811249 C15.85862962 114.94767803 15.87668008 116.69721979 15.90365028 118.44660187 C15.93991653 120.89623639 15.94494661 123.34408582 15.94262695 125.79394531 C15.96060333 126.51827255 15.97857971 127.24259979 15.99710083 127.98887634 C15.95872454 131.73094434 15.67462018 133.1958595 13.0052948 135.90545654 C6.78003505 139.67934805 0.9179315 139.92110555 -6.1875 140 C-7.12013672 140.04125 -8.05277344 140.0825 -9.01367188 140.125 C-13.6521421 140.17789774 -15.93445891 140.00455995 -19.7578125 137.2109375 C-22.85831817 132.56258996 -22.1517763 126.97861083 -21.9375 121.625 C-21.91494141 120.55507812 -21.89238281 119.48515625 -21.86914062 118.3828125 C-21.81045633 115.75375593 -21.7284118 113.12761418 -21.625 110.5 C-22.55570312 110.53351563 -23.48640625 110.56703125 -24.4453125 110.6015625 C-27.625 110.5 -27.625 110.5 -30.5 108.875 C-33.93672331 103.41667474 -33.55166752 97.76247889 -32.625 91.5 C-30.5 88.125 -30.5 88.125 -27.625 86.5 C-25.62601945 86.4361505 -23.62370446 86.42802449 -21.625 86.5 C-21.63388245 85.5486618 -21.64276489 84.59732361 -21.6519165 83.61715698 C-21.7330792 74.64224546 -21.79300221 65.66740861 -21.83224869 56.69221306 C-21.85310426 52.07818149 -21.88138462 47.46444671 -21.92675781 42.85058594 C-21.97028828 38.39612037 -21.99415238 33.94193988 -22.00450897 29.48727798 C-22.01188745 27.78962849 -22.02629606 26.09199421 -22.04792023 24.3944664 C-22.0770508 22.01247457 -22.0809521 19.63165364 -22.07910156 17.24951172 C-22.09348267 16.55107651 -22.10786377 15.8526413 -22.12268066 15.13304138 C-22.08092812 10.15083926 -20.72056423 7.34995419 -17.625 3.5 C-12.48737691 0.00903313 -6.00470544 -0.01906256 0 0 Z "  transform="translate(332.625,19.5)"/>
      <rect class="cls-2" x="336" y="66.0667" width="8" height="38" rx="1"/>
    </g>
  </g>
</svg>
